<svg width="30" height="26" viewBox="0 0 30 26" fill="none" xmlns="http://www.w3.org/2000/svg">
<path d="M11.4213 20.4898V24.1633C11.4213 25.1775 12.2738 26 13.3249 26H17.132C18.1831 26 19.0355 25.1775 19.0355 24.1633V20.4898C19.0355 19.4756 18.1831 18.6531 17.132 18.6531H13.3249C12.2738 18.6531 11.4213 19.4756 11.4213 20.4898ZM11.4213 11.3061L11.4213 14.9796C11.4213 15.9938 12.2738 16.8163 13.3249 16.8163H17.132C18.1831 16.8163 19.0355 15.9938 19.0355 14.9796V11.3061C19.0355 10.2919 18.1831 9.46939 17.132 9.46939H13.3249C12.2738 9.46939 11.4213 10.2919 11.4213 11.3061ZM11.4213 2.12245V5.79592C11.4213 6.81014 12.2738 7.63265 13.3249 7.63265H17.132C18.1831 7.63265 19.0355 6.81014 19.0355 5.79592L19.0355 2.12245C19.0355 1.10823 18.1831 0.285715 17.132 0.285715H13.3249C12.2738 0.285715 11.4213 1.10823 11.4213 2.12245ZM0 20.4898L0 24.1633C0 25.1775 0.852435 26 1.90355 26H5.71066C6.76178 26 7.61421 25.1775 7.61421 24.1633V20.4898C7.61421 19.4756 6.76178 18.6531 5.71066 18.6531H1.90355C0.852435 18.6531 0 19.4756 0 20.4898ZM0 11.3061L0 14.9796C0 15.9938 0.852435 16.8163 1.90355 16.8163H5.71066C6.76178 16.8163 7.61421 15.9938 7.61421 14.9796V11.3061C7.61421 10.2919 6.76178 9.46939 5.71066 9.46939H1.90355C0.852435 9.46939 0 10.2919 0 11.3061ZM0 2.12245L0 5.79592C0 6.81014 0.852435 7.63265 1.90355 7.63265H5.71066C6.76178 7.63265 7.61421 6.81014 7.61421 5.79592V2.12245C7.61421 1.10823 6.76178 0.285715 5.71066 0.285715H1.90355C0.852435 0.285715 0 1.10823 0 2.12245Z" fill="#222222"/>
<path d="M22.3858 20.4898V24.1633C22.3858 25.1775 23.2382 26 24.2894 26H28.0965C29.1476 26 30 25.1775 30 24.1633V20.4898C30 19.4756 29.1476 18.6531 28.0965 18.6531H24.2894C23.2382 18.6531 22.3858 19.4756 22.3858 20.4898ZM22.3858 11.3061V14.9796C22.3858 15.9938 23.2382 16.8163 24.2894 16.8163H28.0965C29.1476 16.8163 30 15.9938 30 14.9796V11.3061C30 10.2919 29.1476 9.46939 28.0965 9.46939H24.2894C23.2382 9.46939 22.3858 10.2919 22.3858 11.3061ZM22.3858 2.12245V5.79592C22.3858 6.81014 23.2382 7.63265 24.2894 7.63265H28.0965C29.1476 7.63265 30 6.81014 30 5.79592L30 2.12245C30 1.10823 29.1476 0.285715 28.0965 0.285715H24.2894C23.2382 0.285715 22.3858 1.10823 22.3858 2.12245ZM10.9645 20.4898V24.1633C10.9645 25.1775 11.8169 26 12.868 26H16.6751C17.7263 26 18.5787 25.1775 18.5787 24.1633V20.4898C18.5787 19.4756 17.7263 18.6531 16.6751 18.6531H12.868C11.8169 18.6531 10.9645 19.4756 10.9645 20.4898ZM10.9645 11.3061L10.9645 14.9796C10.9645 15.9938 11.8169 16.8163 12.868 16.8163H16.6751C17.7263 16.8163 18.5787 15.9938 18.5787 14.9796V11.3061C18.5787 10.2919 17.7263 9.46939 16.6751 9.46939H12.868C11.8169 9.46939 10.9645 10.2919 10.9645 11.3061ZM10.9645 2.12245V5.79592C10.9645 6.81014 11.8169 7.63265 12.868 7.63265H16.6751C17.7263 7.63265 18.5787 6.81014 18.5787 5.79592V2.12245C18.5787 1.10823 17.7263 0.285715 16.6751 0.285715H12.868C11.8169 0.285715 10.9645 1.10823 10.9645 2.12245Z" fill="#222222"/>
</svg>
