<svg width="34" height="30" viewBox="0 0 34 30" fill="none" xmlns="http://www.w3.org/2000/svg">
<path d="M23.9062 7.03125C23.9062 10.2305 19.623 15.9316 17.7422 18.2285C17.291 18.8438 16.459 18.8438 16.0078 18.2285C14.127 15.9316 9.84375 10.2305 9.84375 7.03125C9.84375 3.14824 12.9902 0 16.875 0C20.7598 0 23.9062 3.14824 23.9062 7.03125ZM16.875 8.90625C18.1699 8.90625 19.2188 7.85742 19.2188 6.5625C19.2188 5.26816 18.1699 4.21875 16.875 4.21875C15.5801 4.21875 14.5312 5.26816 14.5312 6.5625C14.5312 7.85742 15.5801 8.90625 16.875 8.90625ZM24.9375 10.5352C24.9668 10.4648 24.9961 10.3945 25.0254 10.3184L31.8223 7.59961C32.748 7.23047 33.75 7.91016 33.75 8.90625V24.7734C33.75 25.3477 33.3984 25.8633 32.8652 26.0801L24.375 29.4727V11.7422C24.5801 11.3379 24.7676 10.9395 24.9375 10.5352ZM8.8125 10.5352C8.98242 10.9395 9.16992 11.3379 9.375 11.7422V26.4727L1.92832 29.4551C1.00488 29.7715 0 29.1445 0 28.1484V12.2812C0 11.707 0.350098 11.1387 0.88418 10.9746L8.0625 8.10352C8.20312 8.93555 8.49023 9.76172 8.8125 10.5352ZM19.207 19.4004C20.0215 18.4336 21.2988 16.7754 22.5 14.9414V29.5488L11.25 26.332V14.9414C12.4512 16.7754 13.7285 18.4336 14.543 19.4004C15.7441 20.9531 18.0059 20.9531 19.207 19.4004Z" fill="#888888"/>
</svg>
